<svg width="140" height="29" viewBox="0 0 140 29" fill="none" xmlns="http://www.w3.org/2000/svg">
<path d="M28.7921 17.9858C26.8399 25.7442 18.9092 30.4659 11.078 28.5312C3.25007 26.5969 -1.51532 18.7385 0.437787 10.9805C2.38907 3.2212 10.3198 -1.5009 18.1487 0.433379C25.9794 2.36766 30.7443 10.227 28.7921 17.9858Z" fill="black"/>
<path d="M21.0588 12.4192C21.3497 10.4922 19.8689 9.45625 17.8441 8.76517L18.5009 6.15475L16.8972 5.75875L16.2578 8.30038C15.8362 8.19629 15.4032 8.09809 14.9729 8.00078L15.6169 5.4424L14.0142 5.0464L13.3569 7.65591C13.0079 7.57717 12.6654 7.49934 12.3328 7.41742L12.3347 7.40927L10.123 6.86211L9.69642 8.55924C9.69642 8.55924 10.8863 8.82943 10.8612 8.84618C11.5107 9.00684 11.628 9.4327 11.6084 9.77032L10.8602 12.7442C10.905 12.7555 10.963 12.7718 11.027 12.7971C10.9735 12.784 10.9164 12.7695 10.8575 12.7555L9.80877 16.9214C9.72929 17.1169 9.52787 17.4102 9.07385 17.2988C9.08984 17.3219 7.9082 17.0105 7.9082 17.0105L7.11206 18.8294L9.199 19.3449C9.58725 19.4413 9.96772 19.5422 10.3423 19.6372L9.67861 22.2775L11.2805 22.6735L11.9377 20.0613C12.3753 20.179 12.8001 20.2876 13.2158 20.3899L12.5608 22.9899L14.1644 23.3859L14.8281 20.7506C17.5627 21.2633 19.6191 21.0565 20.4846 18.6058C21.1821 16.6326 20.4499 15.4944 19.0111 14.7522C20.0589 14.5128 20.8482 13.8299 21.0588 12.4192ZM17.3946 17.5102C16.8991 19.4834 13.546 18.4167 12.4589 18.1492L13.3395 14.6513C14.4266 14.9201 17.9126 15.4523 17.3946 17.5102ZM17.8907 12.3907C17.4385 14.1856 14.6477 13.2737 13.7424 13.0501L14.5408 9.87759C15.4461 10.1012 18.3616 10.5184 17.8907 12.3907Z" fill="white"/>
<path d="M42.8333 8.76255C44.0186 8.76255 45.0426 8.97299 45.9032 9.38619C46.7678 9.80346 47.4813 10.3656 48.0536 11.0725C48.6181 11.783 49.0384 12.6135 49.3097 13.5652C49.5792 14.5197 49.7144 15.5457 49.7144 16.6441C49.7144 18.3312 49.4024 19.9252 48.7725 21.4277C48.1427 22.9325 47.2881 24.2377 46.201 25.351C45.1148 26.463 43.8322 27.3396 42.3532 27.9873C40.8765 28.6353 39.271 28.9594 37.5472 28.9594C37.3243 28.9594 36.9324 28.953 36.3788 28.9417C35.8252 28.9304 35.1889 28.8738 34.4764 28.7783C33.7593 28.6792 33.0011 28.5326 32.2004 28.3362C31.4001 28.1434 30.6401 27.8732 29.9243 27.5302L36.3244 0.884676L42.0568 0.00442505L39.7652 9.45997C40.2558 9.24092 40.75 9.0712 41.2433 8.94765C41.737 8.82591 42.2669 8.76255 42.8333 8.76255ZM38.025 24.4536C38.8882 24.4536 39.7017 24.2431 40.4659 23.83C41.2323 23.4163 41.8937 22.8578 42.4478 22.1622C43.0018 21.4635 43.4403 20.6765 43.76 19.7971C44.0798 18.9178 44.2415 18.0004 44.2415 17.0459C44.2415 15.8733 44.0437 14.9587 43.6495 14.2975C43.2553 13.639 42.5259 13.3077 41.4666 13.3077C41.1195 13.3077 40.6723 13.3733 40.1178 13.4905C39.5615 13.615 39.0636 13.8734 38.6174 14.2622L36.1774 24.3038C36.3244 24.3296 36.4546 24.354 36.5656 24.3771C36.6743 24.402 36.7944 24.4197 36.9141 24.4319C37.0406 24.4459 37.1854 24.4531 37.3604 24.4531C37.5353 24.4531 37.7541 24.4536 38.025 24.4536Z" fill="black"/>
<path d="M55.6588 28.4494H50.1836L54.8074 9.17128H60.32L55.6588 28.4494ZM58.3231 6.82244C57.5589 6.82244 56.866 6.59706 56.2512 6.14539C55.6314 5.69645 55.3244 5.00537 55.3244 4.07399C55.3244 3.56168 55.4295 3.08104 55.6378 2.62757C55.8493 2.175 56.1256 1.78534 56.4718 1.45406C56.8176 1.12549 57.2182 0.862997 57.6731 0.665224C58.1308 0.470619 58.6177 0.373322 59.1366 0.373322C59.9003 0.373322 60.5895 0.598702 61.2066 1.05037C61.8214 1.50429 62.1306 2.19537 62.1306 3.12178C62.1306 3.6359 62.026 4.11833 61.8159 4.5709C61.6072 5.02347 61.3308 5.41313 60.9846 5.74441C60.6416 6.07343 60.2373 6.33502 59.7833 6.53098C59.3252 6.72875 58.8401 6.82244 58.3231 6.82244Z" fill="black"/>
<path d="M65.1185 4.36798L70.8531 3.48773L69.4449 9.1702H75.5865L74.4775 13.6407H68.3729L66.7468 20.384C66.597 20.9461 66.5121 21.471 66.4883 21.9589C66.4614 22.449 66.5239 22.8699 66.6719 23.2243C66.819 23.5796 67.0835 23.8534 67.4671 24.0471C67.849 24.2439 68.3957 24.3431 69.1128 24.3431C69.7034 24.3431 70.279 24.2874 70.8353 24.177C71.3884 24.0683 71.9489 23.9172 72.5162 23.7194L72.9245 27.8993C72.1846 28.1682 71.3834 28.3994 70.5201 28.594C69.6555 28.7914 68.6319 28.8864 67.4489 28.8864C65.7479 28.8864 64.4292 28.6361 63.4897 28.1379C62.5515 27.636 61.8883 26.9503 61.4913 26.0823C61.0999 25.2174 60.925 24.2204 60.9738 23.0971C61.0245 21.9711 61.1958 20.7877 61.4913 19.5413L65.1185 4.36798Z" fill="black"/>
<path d="M75.3452 20.7511C75.3452 19.0906 75.6165 17.5247 76.1587 16.0589C76.7 14.5916 77.4797 13.3086 78.4914 12.2075C79.4994 11.1118 80.7277 10.2438 82.1733 9.60658C83.6121 8.97298 85.2231 8.65347 86.9985 8.65347C88.1098 8.65347 89.1024 8.75757 89.9757 8.9662C90.8527 9.17665 91.6461 9.44865 92.3636 9.78988L90.4754 14.044C89.9821 13.8458 89.4701 13.6711 88.9407 13.5127C88.4108 13.3511 87.7641 13.2733 86.999 13.2733C85.1715 13.2733 83.7268 13.8974 82.6516 15.1415C81.5804 16.3865 81.041 18.0624 81.041 20.1646C81.041 21.4105 81.3123 22.4179 81.8568 23.1887C82.3985 23.9594 83.3993 24.3427 84.8522 24.3427C85.5693 24.3427 86.2613 24.2685 86.9241 24.1237C87.5919 23.977 88.1815 23.7924 88.7009 23.5742L89.1097 27.9352C88.4172 28.2013 87.6535 28.4416 86.8158 28.6521C85.9763 28.8553 84.9769 28.9607 83.8181 28.9607C82.2884 28.9607 80.9935 28.739 79.9343 28.3022C78.8746 27.8587 77.999 27.2699 77.3093 26.5241C76.6159 25.7764 76.1181 24.9035 75.8102 23.9015C75.5023 22.9004 75.3452 21.8486 75.3452 20.7511Z" fill="black"/>
<path d="M99.6677 28.9607C98.3609 28.9607 97.2259 28.7634 96.263 28.3728C95.3029 27.9823 94.5077 27.4342 93.8787 26.7237C93.2488 26.0168 92.7775 25.1791 92.4545 24.2137C92.1316 23.2488 91.9763 22.1803 91.9763 21.0095C91.9763 19.5409 92.2143 18.0728 92.6953 16.6087C93.1739 15.1415 93.8842 13.8232 94.8242 12.6515C95.7569 11.478 96.9075 10.5185 98.2623 9.77041C99.6156 9.02729 101.172 8.65347 102.921 8.65347C104.204 8.65347 105.333 8.85124 106.309 9.24181C107.281 9.63147 108.081 10.1841 108.713 10.891C109.339 11.6015 109.815 12.4356 110.134 13.4023C110.456 14.3654 110.615 15.4366 110.615 16.6083C110.615 18.0724 110.381 19.5405 109.915 21.0091C109.448 22.4704 108.756 23.7919 107.843 24.9664C106.931 26.1381 105.791 27.0971 104.422 27.842C103.054 28.5869 101.468 28.9607 99.6677 28.9607ZM102.404 13.2738C101.593 13.2738 100.875 13.5073 100.261 13.9684C99.644 14.435 99.126 15.0216 98.7085 15.7289C98.2865 16.4395 97.9736 17.2143 97.7621 18.0565C97.5524 18.9006 97.4497 19.6984 97.4497 20.4565C97.4497 21.6798 97.6488 22.6325 98.0403 23.3181C98.4372 24.0001 99.1502 24.3432 100.187 24.3432C101.001 24.3432 101.715 24.1114 102.333 23.6453C102.946 23.1823 103.464 22.5953 103.885 21.8866C104.304 21.1797 104.62 20.4026 104.831 19.5591C105.038 18.7177 105.144 17.9153 105.144 17.1586C105.144 15.9385 104.946 14.9836 104.55 14.2988C104.156 13.6168 103.44 13.2738 102.404 13.2738Z" fill="black"/>
<path d="M116.582 28.4494H111.102L115.726 9.17128H121.241L116.582 28.4494ZM119.242 6.82244C118.478 6.82244 117.786 6.59706 117.172 6.14539C116.555 5.69645 116.245 5.00537 116.245 4.07399C116.245 3.56168 116.352 3.08104 116.561 2.62757C116.769 2.175 117.047 1.78534 117.394 1.45406C117.738 1.12549 118.142 0.862997 118.596 0.665224C119.051 0.470619 119.538 0.373322 120.055 0.373322C120.82 0.373322 121.512 0.598702 122.128 1.05037C122.744 1.50429 123.055 2.19537 123.055 3.12178C123.055 3.6359 122.944 4.11833 122.737 4.5709C122.53 5.02347 122.252 5.41313 121.907 5.74441C121.56 6.07343 121.161 6.33502 120.706 6.53098C120.247 6.72875 119.762 6.82244 119.242 6.82244Z" fill="black"/>
<path d="M125.187 10.0479C125.602 9.92751 126.067 9.78269 126.571 9.6252C127.078 9.4677 127.644 9.32107 128.276 9.18892C128.901 9.0527 129.607 8.94227 130.383 8.85673C131.159 8.76939 132.043 8.72684 133.026 8.72684C135.913 8.72684 137.904 9.56003 139.003 11.2214C140.101 12.8828 140.291 15.1565 139.578 18.0385L137.06 28.4476H131.549L133.989 18.2575C134.138 17.6212 134.255 17.0061 134.342 16.4051C134.429 15.8096 134.424 15.2846 134.322 14.8302C134.225 14.3813 133.995 14.0138 133.64 13.7291C133.278 13.449 132.732 13.3082 131.992 13.3082C131.278 13.3082 130.552 13.3842 129.811 13.5309L126.222 28.4471H120.708L125.187 10.0479Z" fill="black"/>
</svg>
